<svg xmlns="http://www.w3.org/2000/svg" width="42" height="33" viewBox="0 0 42 33" fill="none">
    <path d="M24 1L39.5885 25H8.41154L24 1Z" fill="#7E57C2"/>
    <path d="M23.4298 2.39253C22.7535 2.46767 21.9476 3.64588 21.327 3.99066C20.3807 4.51637 19.5722 5.51697 18.7195 6.18693C17.728 6.96596 17.0316 8.29081 16.1962 9.25235C14.2789 11.459 12.1775 13.5866 10.1401 15.6823C8.78845 17.0725 7.88639 18.8083 6.35502 20.0561C4.9318 21.2158 3.56864 22.4534 2.14941 23.5888C1.68819 23.9578 1.53379 24.6533 1.01856 25.0655C0.405623 25.5558 2.04303 25.1028 2.40174 25.1028C4.02209 25.1028 5.77987 24.9409 7.36437 24.5888C7.71283 24.5114 8.13177 24.444 8.45783 24.2991C8.91198 24.0973 9.53098 24.366 10.0092 24.2243C10.8979 23.961 12.9563 24.567 13.6354 23.8879C13.9858 23.5375 13.7282 22.6015 13.9251 22.1683C14.1526 21.6679 14.0365 21.0648 14.3457 20.5701C14.8751 19.7231 15.0213 18.5267 15.4391 17.6075C16.0026 16.3678 16.1099 14.9201 16.7382 13.6636C17.3348 12.4705 17.6708 11.2571 18.4765 10.1682C19.4864 8.8036 21.4679 4.08682 20.8877 5.68226C20.732 6.11049 20.1696 6.48679 19.8597 6.80375C19.2814 7.39517 18.8419 8.09491 18.2896 8.7103C17.6258 9.44997 17.084 10.2208 16.2709 10.8038C16.1747 10.8727 15.2179 11.6992 15.2148 11.6916C15.1068 11.4215 15.6621 10.9136 15.8036 10.7664C16.6011 9.93705 17.3077 8.99475 18.0466 8.11216C18.7594 7.26078 21.4755 5.39581 20.4391 5.7944C19.0898 6.31338 17.9181 8.14717 17.0747 9.21497C15.2616 11.5102 13.491 13.7759 11.7849 16.1496C9.6216 19.1594 6.27405 21.5601 3.37371 23.8038C3.24032 23.907 1.13997 25.3422 2.02791 24.5608C4.31989 22.5438 6.82499 20.7505 8.95315 18.5514C10.2747 17.1859 12.1963 16.0025 13.1681 14.3365C13.3132 14.0877 13.5308 13.8445 13.7569 13.6636C13.9059 13.5444 12.9742 14.176 12.8317 14.2991C9.31833 17.3311 6.13263 20.6168 3.03726 24.0561C2.70888 24.421 1.56062 25.2409 1.56062 24.3458C1.56062 23.6198 2.23304 23.1929 2.64473 22.6636C3.0001 22.2067 3.51218 21.7307 3.91576 21.3271C4.36334 20.8796 4.746 20.0793 5.26156 19.757C5.74971 19.4519 6.68378 18.4085 6.78493 17.9533C6.95176 17.2026 8.09034 16.9264 8.28026 16.2617C8.43583 15.7172 9.26539 14.9378 9.72886 14.6729C10.5926 14.1794 11.3851 13.1587 11.9905 12.4019C13.0872 11.0311 14.2422 9.65848 15.5233 8.44861C16.1927 7.81635 16.4309 6.82285 17.2896 6.34581C17.8824 6.01648 18.5537 5.23875 18.8877 4.65422C19.1833 4.13701 19.6461 3.34551 20.1027 2.93459C20.228 2.82183 20.9064 2.54536 20.9064 2.8972C20.9064 3.17832 20.5395 3.46151 20.3924 3.67291C19.9435 4.31824 19.5193 5.0547 19.1681 5.75702C18.0132 8.06677 16.6196 10.0844 15.1868 12.2337C14.7122 12.9456 14.2138 13.8626 13.6634 14.5047C13.2095 15.0343 12.6799 15.7035 13.6447 14.6916C15.6095 12.6311 17.3096 10.2884 19.3177 8.28039C20.383 7.21504 17.5167 10.6966 16.6448 11.9253C14.3761 15.122 6.48248 23.8575 8.86904 20.7477C12.2581 16.3316 16.1485 12.3617 19.7756 8.14955C19.8715 8.03812 21.0455 6.98363 20.5887 7.68226C19.9312 8.68776 18.9511 9.51227 18.1027 10.3458C15.2715 13.1273 12.5493 16.015 9.55129 18.6262C9.10526 19.0147 8.63247 19.5499 8.12138 19.8505C7.9347 19.9603 8.73663 19.5614 8.8597 19.4673C9.02351 19.342 10.5117 18.4119 9.82231 19.1215C9.01967 19.9478 7.96487 20.4661 7.11203 21.2337C6.80628 21.5089 6.57637 21.799 6.30829 22.1496C6.07552 22.454 5.74786 22.6893 5.53259 22.9907C5.44177 23.1178 6.57061 23.0657 6.70081 23.0468C8.46477 22.7902 13.8104 22.5795 12.0279 22.5795C10.8213 22.5795 9.55882 22.5119 8.38306 22.8412C7.60683 23.0585 6.81968 23.4355 6.02792 23.5795C4.52896 23.852 7.53459 23.4958 7.78493 23.458C9.99588 23.1238 12.1091 22.6063 14.2709 22.1122C15.1074 21.921 12.8526 22.0748 12.5326 22.0748C11.8879 22.0748 10.3896 22.3308 10.0092 21.5701C9.48546 20.5226 11.8036 19.9076 11.8036 18.9813C11.8036 18.9378 11.052 19.4594 10.9812 19.514C10.6427 19.7752 10.2812 20.1037 10.0653 20.4767C9.96392 20.6518 9.44478 21.5709 9.21484 21.6169C8.95602 21.6686 9.83157 20.6094 9.90643 20.5514C11.1805 19.565 12.3369 18.4695 13.5419 17.4019C14.9426 16.1611 16.2738 14.8383 17.5793 13.5327C18.7351 12.377 15.2726 15.8491 14.1214 17.0094C12.3269 18.8179 10.775 20.8566 9.13072 22.8038C8.69659 23.3179 8.07341 23.5139 7.70082 24.0935C7.45897 24.4697 6.81649 24.9909 6.35502 25.0935C5.6128 25.2584 5.76623 24.5386 5.76623 24.0094C5.76623 22.9659 6.4525 22.8202 7.01857 22.0655C7.51375 21.4052 8.01575 20.7599 8.58867 20.1869C9.63393 19.1417 6.35857 22.1331 5.1681 23.0094C5.10613 23.055 3.01552 24.2432 3.44847 23.4206C3.7712 22.8074 4.63508 22.2916 5.11203 21.8038C6.45552 20.4297 8.05946 19.3753 9.39241 17.9813C11.7968 15.4668 14.4824 12.8997 16.5046 10.0561C17.4542 8.72062 18.3827 7.02683 18.7289 5.41123C18.9589 4.33783 19.4832 3.33837 19.8877 2.32711C20.0523 1.91568 19.5325 3.14037 19.3924 3.56076C19.1379 4.32429 19.4937 3.7284 19.9345 3.40188C20.3827 3.06988 20.7581 2.61566 21.1494 2.22431C21.4489 1.92483 23.2294 0.677005 22.7195 1.88786C22.1977 3.12719 21.5111 4.70637 21.4111 6.05609C21.3479 6.9089 20.4018 7.46263 20.4018 8.28039" stroke="#7E57C2" stroke-opacity="0.5" stroke-linecap="round"/>
</svg>