<?xml version="1.0" encoding="UTF-8"?>
<svg version="1.1" xmlns="http://www.w3.org/2000/svg" width="32" height="32">
<path d="M0 0 C3.5 -0.375 3.5 -0.375 7 0 C9.1519437 3.22791555 9.20086443 4.28400809 9 8 C9.68707031 8.12117187 10.37414062 8.24234375 11.08203125 8.3671875 C11.98308594 8.53476563 12.88414063 8.70234375 13.8125 8.875 C15.15248047 9.11863281 15.15248047 9.11863281 16.51953125 9.3671875 C19 10 19 10 22 12 C22.3984375 14.79296875 22.3984375 14.79296875 22.375 18.1875 C22.38273437 19.29480469 22.39046875 20.40210938 22.3984375 21.54296875 C21.9312981 25.59609 20.75821491 28.33937795 19 32 C2.26989158 33.66963784 2.26989158 33.66963784 -3.04296875 29.76171875 C-6.60472811 24.96729222 -8.80434438 21.10609822 -8 15 C-5 13 -5 13 -2 13 C-2.02320313 12.31292969 -2.04640625 11.62585937 -2.0703125 10.91796875 C-2.08835937 10.01691406 -2.10640625 9.11585937 -2.125 8.1875 C-2.14820313 7.29417969 -2.17140625 6.40085937 -2.1953125 5.48046875 C-2 3 -2 3 0 0 Z M2 3 C2 8.94 2 14.88 2 21 C1.34 21 0.68 21 0 21 C-0.66 19.68 -1.32 18.36 -2 17 C-2.99 17 -3.98 17 -5 17 C-3.94708868 21.97332583 -2.22446924 25.98252197 2 29 C7.08911518 29.70268118 11.89817364 29.46734287 17 29 C18.73127653 23.37973156 18.73127653 23.37973156 19.125 17.5625 C19.08375 16.386875 19.0425 15.21125 19 14 C18.01 14.33 17.02 14.66 16 15 C15.01 14.01 14.02 13.02 13 12 C12.67 13.32 12.34 14.64 12 16 C11.34 16 10.68 16 10 16 C9.67 14.35 9.34 12.7 9 11 C8.01 11.495 8.01 11.495 7 12 C7 13.32 7 14.64 7 16 C6.34 16 5.68 16 5 16 C5 11.71 5 7.42 5 3 C4.01 3 3.02 3 2 3 Z " fill="#fff" transform="translate(8,0)"/>
<path d="M0 0 C0.99 0 1.98 0 3 0 C3 2.64 3 5.28 3 8 C2.01 8 1.02 8 0 8 C0 5.36 0 2.72 0 0 Z " fill="#fff" transform="translate(12,18)"/>
<path d="M0 0 C0.66 0 1.32 0 2 0 C2 2.64 2 5.28 2 8 C1.34 8 0.68 8 0 8 C0 5.36 0 2.72 0 0 Z " fill="#fff" transform="translate(22,18)"/>
<path d="M0 0 C0.66 0 1.32 0 2 0 C2 2.64 2 5.28 2 8 C1.34 8 0.68 8 0 8 C0 5.36 0 2.72 0 0 Z " fill="#fff" transform="translate(17,18)"/>
<path d="M0 0 C6.93 0.495 6.93 0.495 14 1 C14 1.33 14 1.66 14 2 C9.38 2 4.76 2 0 2 C0 1.34 0 0.68 0 0 Z " fill="#fff" transform="translate(10,26)"/>
<path d="M0 0 C0.33 0 0.66 0 1 0 C1 4.62 1 9.24 1 14 C0.67 14 0.34 14 0 14 C0 9.38 0 4.76 0 0 Z " fill="#fff" transform="translate(11,4)"/>
<path d="M0 0 C0.33 0 0.66 0 1 0 C1 2.97 1 5.94 1 9 C0.34 8.67 -0.32 8.34 -1 8 C-0.67 5.36 -0.34 2.72 0 0 Z " fill="#fff" transform="translate(4,3)"/>
<path d="M0 0 C0.99 1.32 1.98 2.64 3 4 C2.01 4.495 2.01 4.495 1 5 C0.34 3.68 -0.32 2.36 -1 1 C-0.67 0.67 -0.34 0.34 0 0 Z " fill="#fff" transform="translate(6,19)"/>
<path d="M0 0 C0.33 0 0.66 0 1 0 C1 2.31 1 4.62 1 7 C0.67 7 0.34 7 0 7 C0 4.69 0 2.38 0 0 Z " fill="#fff" transform="translate(20,18)"/>
<path d="M0 0 C0.33 0 0.66 0 1 0 C1 1.98 1 3.96 1 6 C0.67 6 0.34 6 0 6 C0 4.02 0 2.04 0 0 Z " fill="#fff" transform="translate(25,15)"/>
<path d="M0 0 C1.65 0 3.3 0 5 0 C5 0.33 5 0.66 5 1 C3.35 1 1.7 1 0 1 C0 0.67 0 0.34 0 0 Z " fill="#fff" transform="translate(19,7)"/>
<path d="M0 0 C1 4 1 4 1 4 Z " fill="#fff" transform="translate(31,20)"/>
<path d="" fill="#fff" transform="translate(0,0)"/>
<path d="M0 0 C0.99 0.495 0.99 0.495 2 1 C1.01 1.495 1.01 1.495 0 2 C0 1.34 0 0.68 0 0 Z " fill="#fff" transform="translate(4,18)"/>
<path d="" fill="#fff" transform="translate(0,0)"/>
<path d="M0 0 C3 1 3 1 3 1 Z " fill="#fff" transform="translate(24,8)"/>
<path d="" fill="#fff" transform="translate(0,0)"/>
<path d="" fill="#fff" transform="translate(0,0)"/>
<path d="" fill="#fff" transform="translate(0,0)"/>
<path d="" fill="#fff" transform="translate(0,0)"/>
<path d="" fill="#fff" transform="translate(0,0)"/>
<path d="" fill="#fff" transform="translate(0,0)"/>
<path d="" fill="#fff" transform="translate(0,0)"/>
<path d="" fill="#fff" transform="translate(0,0)"/>
<path d="" fill="#fff" transform="translate(0,0)"/>
<path d="" fill="#fff" transform="translate(0,0)"/>
<path d="" fill="#fff" transform="translate(0,0)"/>
<path d="" fill="#fff" transform="translate(0,0)"/>
<path d="" fill="#fff" transform="translate(0,0)"/>
<path d="" fill="#fff" transform="translate(0,0)"/>
<path d="" fill="#fff" transform="translate(0,0)"/>
<path d="" fill="#fff" transform="translate(0,0)"/>
<path d="" fill="#fff" transform="translate(0,0)"/>
<path d="" fill="#fff" transform="translate(0,0)"/>
<path d="" fill="#fff" transform="translate(0,0)"/>
<path d="" fill="#fff" transform="translate(0,0)"/>
<path d="" fill="#fff" transform="translate(0,0)"/>
<path d="" fill="#fff" transform="translate(0,0)"/>
<path d="" fill="#fff" transform="translate(0,0)"/>
<path d="" fill="#fff" transform="translate(0,0)"/>
</svg>
