<svg width="524" height="264" viewBox="0 0 524 264" fill="none" xmlns="http://www.w3.org/2000/svg">
<path d="M148.836 136.139C148.836 121.727 152.425 110.362 159.603 102.045C166.837 93.7279 177.034 89.5693 190.193 89.5693C205.46 89.5693 216.797 93.5 224.202 101.361C231.608 109.223 235.311 121.869 235.311 139.301C235.311 142.719 233.715 144.428 230.525 144.428H174.129C175.04 153.884 177.376 159.837 181.136 162.287C184.896 164.736 189.253 165.961 194.209 165.961C198.938 165.961 202.555 165.334 205.062 164.081C207.568 162.828 209.676 161.119 211.385 158.954C213.322 156.448 215.714 156.049 218.562 157.758L227.107 162.97C230.468 165.021 230.953 167.471 228.56 170.319C225.085 174.477 221.012 177.582 216.341 179.633C211.67 181.684 204.292 182.709 194.209 182.709C177.86 182.709 166.211 178.55 159.261 170.233C152.311 161.916 148.836 150.552 148.836 136.139ZM174.214 127.338H211.385C211.385 121.186 209.847 116.173 206.771 112.299C203.694 108.368 198.795 106.403 192.073 106.403C186.718 106.403 182.474 108.283 179.341 112.042C176.208 115.745 174.499 120.844 174.214 127.338ZM254.451 181C249.552 181 248.527 178.921 251.375 174.762L279.659 133.747L254.708 97.5161C251.859 93.3576 252.885 91.2783 257.784 91.2783H273.934C276.497 91.2783 278.434 92.4176 279.744 94.6963L292.989 117.768L306.233 94.6963C307.544 92.4176 309.48 91.2783 312.044 91.2783H328.194C333.15 91.2783 334.175 93.3576 331.27 97.5161L306.148 133.747L334.603 174.762C337.508 178.921 336.482 181 331.526 181H315.376C312.87 181 310.933 179.861 309.566 177.582L292.989 149.726L276.412 177.582C275.044 179.861 273.108 181 270.601 181H254.451ZM346.565 143.744V96.4053C346.565 92.9873 348.274 91.2783 351.692 91.2783H365.364C368.782 91.2783 370.491 92.9873 370.491 96.4053V137.592C370.491 150.01 371.346 157.843 373.055 161.09C374.764 164.337 378.353 165.961 383.821 165.961C389.632 165.961 394.047 163.654 397.066 159.04C400.085 154.368 401.595 144.713 401.595 130.072V96.4053C401.595 92.9873 403.304 91.2783 406.722 91.2783H420.394C423.812 91.2783 425.521 92.9873 425.521 96.4053V175.873C425.521 179.291 423.812 181 420.394 181H406.893C403.475 181 401.766 179.291 401.766 175.873V170.917H401.424C398.803 175.417 395.471 178.522 391.426 180.231C387.382 181.883 382.597 182.709 377.071 182.709C368.355 182.709 361.092 179.918 355.281 174.335C349.471 168.752 346.565 158.555 346.565 143.744ZM446.968 175.019C444.177 173.025 443.408 170.889 444.661 168.61L449.019 160.663C450.557 157.815 452.95 157.473 456.197 159.638C459.444 161.802 463.261 163.397 467.647 164.423C472.09 165.448 476.135 165.961 479.781 165.961C482.344 165.961 484.737 165.705 486.958 165.192C489.18 164.679 491.06 163.682 492.598 162.201C494.136 160.72 494.905 158.555 494.905 155.707C494.905 153.998 494.45 152.545 493.538 151.349C492.627 150.153 491.459 149.241 490.035 148.615C488.611 147.988 487.101 147.475 485.506 147.077C483.398 146.564 480.35 145.709 476.363 144.513C472.432 143.317 468.644 141.921 464.998 140.326C461.979 139.016 459.017 137.193 456.111 134.857C453.263 132.465 451.155 129.816 449.788 126.911C448.478 124.005 447.823 120.417 447.823 116.144C447.823 110.39 449.475 105.349 452.779 101.02C456.14 96.6901 460.469 93.6994 465.767 92.0474C471.065 90.3953 477.673 89.5693 485.591 89.5693C490.946 89.5693 496.159 90.3384 501.229 91.8765C506.299 93.4146 509.916 94.8672 512.081 96.2344C515.499 98.3991 516.353 100.706 514.644 103.156L509.432 110.761C507.837 113.039 505.273 113.21 501.741 111.273C499.064 109.792 496.415 108.596 493.794 107.685C491.231 106.773 488.354 106.317 485.164 106.317C482.999 106.317 480.92 106.545 478.926 107.001C476.932 107.457 475.223 108.311 473.799 109.564C472.432 110.818 471.749 112.47 471.749 114.521C471.749 116.685 472.375 118.394 473.628 119.647C474.939 120.844 476.42 121.727 478.072 122.296C479.781 122.866 481.404 123.407 482.942 123.92C486.132 124.945 489.351 125.942 492.598 126.911C495.845 127.822 499.149 128.933 502.51 130.243C505.416 131.382 508.235 133.006 510.97 135.114C513.704 137.222 515.698 139.899 516.951 143.146C518.204 146.393 518.831 150.096 518.831 154.254C518.831 159.78 517.179 164.907 513.875 169.635C510.571 174.363 506.213 177.724 500.801 179.718C495.389 181.712 489.095 182.709 481.917 182.709C473.885 182.709 467.049 182.139 461.409 181C455.77 179.861 450.956 177.867 446.968 175.019Z" fill="#2A9D8F"/>
<rect x="6" y="28" width="40" height="180" transform="rotate(-34.9185 6 28)" fill="#18655B"/>
<rect y="5" width="40" height="180" fill="#2A9D8F"/>
<rect x="102" width="40" height="180" fill="#2A9D8F"/>
<path d="M5.63574 208.943C5.27767 207.641 5.65202 206.99 6.75879 206.99H11.2754C12.0404 206.99 12.5531 207.527 12.8135 208.602L17.4521 227.791C17.7939 229.191 18.0137 230.151 18.1113 230.672C18.2253 231.176 18.3229 231.998 18.4043 233.138H18.5264C18.6077 231.998 18.6891 231.136 18.7705 230.55C18.8519 229.964 19.0879 228.995 19.4785 227.645L24.9229 208.797C25.2646 207.592 25.9482 206.99 26.9736 206.99H31.4658C32.4912 206.99 33.1748 207.592 33.5166 208.797L38.9609 227.645C39.3516 228.995 39.5876 229.964 39.6689 230.55C39.7503 231.136 39.8317 231.998 39.9131 233.138H40.0352C40.1165 231.998 40.2061 231.176 40.3037 230.672C40.4176 230.151 40.6455 229.191 40.9873 227.791L45.626 208.602C45.8864 207.527 46.3991 206.99 47.1641 206.99H51.6807C52.7874 206.99 53.1618 207.641 52.8037 208.943L44.5029 239.632C44.0798 241.211 43.3148 242 42.208 242H37.9355C36.9915 242 36.2998 241.219 35.8604 239.656L30.001 219.197C29.6755 218.09 29.4883 217.374 29.4395 217.049C29.3906 216.707 29.3255 216.08 29.2441 215.169H29.1953C29.1139 216.08 29.0488 216.707 29 217.049C28.9512 217.374 28.764 218.09 28.4385 219.197L22.5791 239.656C22.1396 241.219 21.4479 242 20.5039 242H16.2314C15.1247 242 14.3597 241.211 13.9365 239.632L5.63574 208.943ZM55.3184 229.183C55.3184 225.065 56.3438 221.818 58.3945 219.441C60.4616 217.065 63.375 215.877 67.1348 215.877C71.4967 215.877 74.7357 217 76.8516 219.246C78.9674 221.492 80.0254 225.105 80.0254 230.086C80.0254 231.062 79.5697 231.551 78.6582 231.551H62.5449C62.8053 234.253 63.4727 235.953 64.5469 236.653C65.6211 237.353 66.8662 237.703 68.2822 237.703C69.6331 237.703 70.6667 237.524 71.3828 237.166C72.099 236.808 72.7012 236.32 73.1895 235.701C73.7428 234.985 74.4264 234.871 75.2402 235.359L77.6816 236.849C78.6419 237.435 78.7803 238.134 78.0967 238.948C77.1038 240.136 75.9401 241.023 74.6055 241.609C73.2708 242.195 71.1631 242.488 68.2822 242.488C63.611 242.488 60.2826 241.3 58.2969 238.924C56.3112 236.548 55.3184 233.3 55.3184 229.183ZM62.5693 226.668H73.1895C73.1895 224.91 72.75 223.478 71.8711 222.371C70.9922 221.248 69.5924 220.687 67.6719 220.687C66.1419 220.687 64.9294 221.224 64.0342 222.298C63.139 223.356 62.6507 224.812 62.5693 226.668ZM86.8125 242C85.8359 242 85.3477 241.512 85.3477 240.535V207.43C85.3477 206.453 85.8359 205.965 86.8125 205.965H90.7188C91.6953 205.965 92.1836 206.453 92.1836 207.43V217.293C92.1836 217.944 92.151 218.595 92.0859 219.246H92.1836C93.0299 217.846 93.974 216.935 95.0156 216.512C96.0573 216.089 97.3105 215.877 98.7754 215.877C102.6 215.877 105.286 217.203 106.832 219.856C108.395 222.493 109.176 225.602 109.176 229.183C109.176 232.763 108.395 235.88 106.832 238.533C105.286 241.17 102.6 242.488 98.7754 242.488C97.3105 242.488 96.0573 242.277 95.0156 241.854C93.974 241.43 93.0299 240.519 92.1836 239.119H92.0859L91.9883 240.535C91.9232 241.512 91.4837 242 90.6699 242H86.8125ZM92.1836 230.281C92.1836 232.479 92.6149 234.269 93.4775 235.652C94.3564 237.02 95.4062 237.703 96.627 237.703C98.8242 237.703 100.257 236.938 100.924 235.408C101.607 233.862 101.949 231.787 101.949 229.183C101.949 226.578 101.607 224.511 100.924 222.981C100.257 221.435 98.8242 220.662 96.627 220.662C95.4062 220.662 94.3564 221.354 93.4775 222.737C92.6149 224.104 92.1836 225.887 92.1836 228.084V230.281ZM134.078 242C132.776 242 132.125 241.39 132.125 240.169V208.821C132.125 207.601 132.776 206.99 134.078 206.99H142.379C148.629 206.99 152.844 207.763 155.025 209.31C157.223 210.84 158.321 213.2 158.321 216.39C158.321 218.619 157.499 220.345 155.855 221.565C154.228 222.786 152.649 223.494 151.119 223.689V223.763C152.6 223.86 154.342 224.609 156.344 226.009C158.346 227.409 159.347 229.386 159.347 231.941C159.347 234.936 158.126 237.361 155.685 239.217C153.243 241.072 149.215 242 143.6 242H134.078ZM139.254 236.043H142.818C146.269 236.043 148.613 235.742 149.85 235.14C151.103 234.537 151.729 233.317 151.729 231.478C151.729 229.752 151.005 228.564 149.557 227.913C148.124 227.246 145.878 226.912 142.818 226.912H139.254V236.043ZM139.254 221.15H142.452C144.552 221.15 146.513 220.784 148.336 220.052C150.175 219.319 151.095 218.18 151.095 216.634C151.095 215.429 150.582 214.518 149.557 213.899C148.548 213.265 146.179 212.947 142.452 212.947H139.254V221.15ZM166.695 242C165.719 242 165.23 241.512 165.23 240.535V217.83C165.23 216.854 165.719 216.365 166.695 216.365H170.553C171.529 216.365 172.018 216.854 172.018 217.83V219.832H172.115C172.538 218.79 173.246 217.871 174.239 217.073C175.232 216.276 176.404 215.877 177.755 215.877C178.683 215.877 179.448 215.991 180.05 216.219C180.619 216.43 180.839 216.821 180.709 217.391L180.025 220.296C179.879 220.947 179.439 221.142 178.707 220.882C178.284 220.735 177.877 220.662 177.486 220.662C175.924 220.662 174.63 221.598 173.604 223.47C172.579 225.341 172.066 228.068 172.066 231.648V240.535C172.066 241.512 171.578 242 170.602 242H166.695ZM183.053 229.183C183.053 225.032 184.119 221.777 186.251 219.417C188.399 217.057 191.59 215.877 195.821 215.877C200.053 215.877 203.235 217.057 205.367 219.417C207.516 221.777 208.59 225.032 208.59 229.183C208.59 233.333 207.516 236.588 205.367 238.948C203.235 241.308 200.053 242.488 195.821 242.488C191.59 242.488 188.399 241.308 186.251 238.948C184.119 236.588 183.053 233.333 183.053 229.183ZM190.279 229.183C190.279 232.275 190.751 234.472 191.695 235.774C192.656 237.06 194.031 237.703 195.821 237.703C197.612 237.703 198.979 237.06 199.923 235.774C200.883 234.472 201.363 232.275 201.363 229.183C201.363 226.09 200.883 223.901 199.923 222.615C198.979 221.313 197.612 220.662 195.821 220.662C194.031 220.662 192.656 221.313 191.695 222.615C190.751 223.901 190.279 226.09 190.279 229.183ZM212.105 218.27C211.747 217 212.016 216.365 212.911 216.365H217.037C217.818 216.365 218.307 216.78 218.502 217.61L221.798 231.917C221.993 232.747 222.164 233.545 222.311 234.31C222.457 235.075 222.547 235.701 222.579 236.189H222.726C222.758 235.701 222.848 235.066 222.994 234.285C223.141 233.488 223.312 232.698 223.507 231.917L226.974 217.61C227.169 216.78 227.657 216.365 228.438 216.365H232.882C233.663 216.365 234.151 216.78 234.347 217.61L237.813 231.917C238.009 232.698 238.18 233.488 238.326 234.285C238.473 235.066 238.562 235.701 238.595 236.189H238.741C238.774 235.701 238.863 235.075 239.01 234.31C239.156 233.545 239.327 232.747 239.522 231.917L242.818 217.61C243.014 216.78 243.502 216.365 244.283 216.365H248.409C249.304 216.365 249.573 217 249.215 218.27L242.867 240.364C242.558 241.455 241.964 242 241.085 242H236.666C235.738 242 235.144 241.455 234.884 240.364L231.344 225.887C231.132 225.057 230.978 224.389 230.88 223.885C230.799 223.38 230.742 222.819 230.709 222.2H230.611C230.579 222.819 230.514 223.38 230.416 223.885C230.335 224.389 230.188 225.057 229.977 225.887L226.437 240.364C226.176 241.455 225.582 242 224.654 242H220.235C219.356 242 218.762 241.455 218.453 240.364L212.105 218.27ZM252.511 240.291C251.713 239.721 251.493 239.111 251.852 238.46L253.097 236.189C253.536 235.376 254.22 235.278 255.147 235.896C256.075 236.515 257.166 236.971 258.419 237.264C259.688 237.557 260.844 237.703 261.886 237.703C262.618 237.703 263.302 237.63 263.937 237.483C264.571 237.337 265.108 237.052 265.548 236.629C265.987 236.206 266.207 235.587 266.207 234.773C266.207 234.285 266.077 233.87 265.816 233.528C265.556 233.187 265.222 232.926 264.815 232.747C264.409 232.568 263.977 232.422 263.521 232.308C262.919 232.161 262.049 231.917 260.909 231.575C259.786 231.233 258.704 230.835 257.662 230.379C256.799 230.005 255.953 229.484 255.123 228.816C254.309 228.133 253.707 227.376 253.316 226.546C252.942 225.716 252.755 224.69 252.755 223.47C252.755 221.826 253.227 220.385 254.171 219.148C255.131 217.911 256.368 217.057 257.882 216.585C259.396 216.113 261.284 215.877 263.546 215.877C265.076 215.877 266.565 216.097 268.014 216.536C269.462 216.976 270.496 217.391 271.114 217.781C272.091 218.4 272.335 219.059 271.847 219.759L270.357 221.932C269.902 222.583 269.169 222.632 268.16 222.078C267.395 221.655 266.638 221.313 265.89 221.053C265.157 220.792 264.335 220.662 263.424 220.662C262.805 220.662 262.211 220.727 261.642 220.857C261.072 220.988 260.584 221.232 260.177 221.59C259.786 221.948 259.591 222.42 259.591 223.006C259.591 223.624 259.77 224.113 260.128 224.471C260.502 224.812 260.925 225.065 261.397 225.228C261.886 225.39 262.35 225.545 262.789 225.691C263.701 225.984 264.62 226.269 265.548 226.546C266.476 226.806 267.42 227.124 268.38 227.498C269.21 227.824 270.016 228.287 270.797 228.89C271.578 229.492 272.148 230.257 272.506 231.185C272.864 232.112 273.043 233.17 273.043 234.358C273.043 235.937 272.571 237.402 271.627 238.753C270.683 240.104 269.438 241.064 267.892 241.634C266.345 242.203 264.547 242.488 262.496 242.488C260.201 242.488 258.248 242.326 256.637 242C255.025 241.674 253.65 241.105 252.511 240.291ZM276.217 229.183C276.217 225.065 277.242 221.818 279.293 219.441C281.36 217.065 284.273 215.877 288.033 215.877C292.395 215.877 295.634 217 297.75 219.246C299.866 221.492 300.924 225.105 300.924 230.086C300.924 231.062 300.468 231.551 299.557 231.551H283.443C283.704 234.253 284.371 235.953 285.445 236.653C286.52 237.353 287.765 237.703 289.181 237.703C290.532 237.703 291.565 237.524 292.281 237.166C292.997 236.808 293.6 236.32 294.088 235.701C294.641 234.985 295.325 234.871 296.139 235.359L298.58 236.849C299.54 237.435 299.679 238.134 298.995 238.948C298.002 240.136 296.839 241.023 295.504 241.609C294.169 242.195 292.062 242.488 289.181 242.488C284.509 242.488 281.181 241.3 279.195 238.924C277.21 236.548 276.217 233.3 276.217 229.183ZM283.468 226.668H294.088C294.088 224.91 293.648 223.478 292.77 222.371C291.891 221.248 290.491 220.687 288.57 220.687C287.04 220.687 285.828 221.224 284.933 222.298C284.037 223.356 283.549 224.812 283.468 226.668ZM307.711 242C306.734 242 306.246 241.512 306.246 240.535V217.83C306.246 216.854 306.734 216.365 307.711 216.365H311.568C312.545 216.365 313.033 216.854 313.033 217.83V219.832H313.131C313.554 218.79 314.262 217.871 315.255 217.073C316.248 216.276 317.42 215.877 318.771 215.877C319.698 215.877 320.463 215.991 321.065 216.219C321.635 216.43 321.855 216.821 321.725 217.391L321.041 220.296C320.895 220.947 320.455 221.142 319.723 220.882C319.299 220.735 318.893 220.662 318.502 220.662C316.939 220.662 315.646 221.598 314.62 223.47C313.595 225.341 313.082 228.068 313.082 231.648V240.535C313.082 241.512 312.594 242 311.617 242H307.711ZM322.799 242C321.66 242 321.09 241.39 321.09 240.169V236.897C321.09 235.677 321.66 235.066 322.799 235.066H326.51C327.649 235.066 328.219 235.677 328.219 236.897V240.169C328.219 241.39 327.649 242 326.51 242H322.799Z" fill="white"/>
</svg>
